<?xml version="1.0" encoding="utf-8"?>
<!-- Generator: Adobe Illustrator 19.0.0, SVG Export Plug-In . SVG Version: 6.00 Build 0)  -->
<svg version="1.1" id="Layer_1" xmlns="http://www.w3.org/2000/svg" xmlns:xlink="http://www.w3.org/1999/xlink" x="0px" y="0px"
	 viewBox="0 0 2045.9 471.7" style="enable-background:new 0 0 2045.9 471.7;" xml:space="preserve">
<g id="demLogo">
	<path id="o" class="uncolored undrawn" fill="#495E59" d="M1994.1,178.7c-10.5-31.4-29.4-56.8-57.2-75.3c-26.2-17.4-55.4-24.7-86.5-24.9
		c-37.8-0.2-72.4,9.6-102.2,33.5c-38.5,30.9-55.2,72.9-59.2,120.8c-1.7,20.8-0.5,41.5,3.9,62c6.8,30.7,20.2,58,42.9,80.1
		c29.8,29,66.2,41.7,107.3,42.1c14.8,0.3,29.3-1.5,43.5-5.3c50-13.2,86-43,104.8-91.3C2009.6,273.7,2010,226.1,1994.1,178.7z
		 M1926,323.9c-14.6,25.2-35.3,42.7-64.6,47.9c-28.2,5-53.1-2.6-74.3-21.8c-21.6-19.6-32.5-44.9-37.1-73.2
		c-4.9-30.1-2.6-59.6,7.9-88.2c8.6-23.3,22.2-43,44.5-55c40.7-21.9,97-14.1,124.4,37.5c12.6,23.8,18.3,49.4,18.3,72
		C1945,274.5,1939.7,300.3,1926,323.9z"/>
	<path id="a" class="uncolored undrawn" fill="#495E59" d="M1378.9,406.2c-3.7-20.5-4.3-41.3-4.7-62.1c-0.4-23.3-0.1-46.7-0.1-70h-0.1c0-22.7,0.1-45.3,0-68
		c-0.1-16.7-2.3-33.2-7.1-49.2c-11.2-37.5-34.9-62.5-73.3-72.3c-30.8-8-61.8-6.3-92.5,0.5c-18.8,4.2-36.6,10.9-53.2,20.8
		c-2.6,1.6-3.2,2.9-2.1,5.9c3.8,10.2,7.4,20.5,10.7,31c1.1,3.5,2,3.5,4.9,1.9c31.8-17.9,65.7-26,102-19.9
		c21.2,3.6,37.2,14.8,46,35.4c5.4,12.7,6.7,25.9,6.8,39.5c0,3.7-0.6,5.2-4.8,5.2c-17,0-34,0.7-50.8,2.8c-25.2,3.1-49.8,8.5-73,19.2
		c-19.9,9.2-37.3,21.7-49.7,40.2c-14.6,21.9-19.3,46.3-15.6,71.9c4.4,30.8,20.3,54.5,48.6,68c33.6,16.1,67.8,14.2,101.6,0.2
		c18-7.4,32.9-19.3,44.9-34.7c0.9-1.1,1.6-2.9,3.4-2.2c1.6,0.6,1,2.3,1.2,3.5c1.3,10.9,2.8,21.8,3.8,32.7c0.3,3.6,1.6,4.3,4.8,4.3
		c14.8-0.1,29.7-0.2,44.5,0.1C1379,410.9,1379.5,409.4,1378.9,406.2z M1317.3,303.6c-0.9,18.7-9,33.9-21.7,46.8
		c-20.6,20.8-45.9,28.2-74.4,22.9c-20.9-3.9-34.6-16.8-39.4-37.7c-4.8-20.7-2.4-40.5,11.9-57.4c10.2-12,24-18.8,38.8-23.5
		c26.4-8.3,53.6-9.8,81-9.4c2.7,0,3.7,0.5,3.9,3.4c0.8,9,0,18,0.4,27C1317.4,285,1317.8,294.3,1317.3,303.6z"/>
	<path id="u" class="uncolored undrawn" fill="#495E59" d="M629.3,213c0,39.7-0.4,79.3,0.1,119c0.3,24.3,0,48.6,2.6,72.8c0.4,3.9-0.7,5.1-4.8,5
		c-14.3-0.3-28.7-0.2-43,0c-3.2,0-4.2-0.8-4.4-4.1c-0.8-15-1.8-29.9-2.9-44.8c-0.1-1.1,0.8-2.9-1.2-3.3c-1.4-0.3-1.8,1.2-2.4,2.2
		c-19.7,30.3-47.1,49.6-82.9,55.3c-35.1,5.6-68.2,0.4-95.6-24.5c-17.9-16.2-27.3-37.2-32.8-60.3c-4.8-20-6-40.4-6-60.9
		c0-59.5,0.1-119-0.1-178.5c0-4.2,1.2-5.3,5.3-5.3c16.2,0.2,32.3,0.3,48.5,0c4.2-0.1,5.3,1.1,5.3,5.3c-0.1,57-0.1,114-0.1,171
		c0,22.7,1.5,45.3,10.2,66.7c12.4,30.6,39.9,42.7,70.3,39.4c30.3-3.3,51.9-19.6,66.5-45.8c6.9-12.4,8.9-26,8.9-40
		c0-52.8,0-105.7,0-158.5c0-11.2,0.1-22.3-0.1-33.5c-0.1-3.4,0.8-4.7,4.4-4.6c16.2,0.2,32.3,0.2,48.5,0c4.8-0.1,5.7,1.7,5.6,6
		C629.2,132,629.3,172.5,629.3,213z"/>
	<path id="c" class="uncolored undrawn" fill="#495E59" d="M199.1,79.1c21.5,0.2,46.7,4,70.9,13.5c7.1,2.8,7,2.9,4.9,10.1c-3.4,11.6-6.9,23.2-10.2,34.8
		c-0.7,2.4-1.3,3.5-4.2,2.1c-24.4-11.9-50.2-15.2-77-13.2c-26,1.9-48.8,11-67.7,29.1c-17.1,16.4-27.1,36.8-31.9,59.8
		c-6.4,31-5.1,61.6,8.1,90.8c16.3,36.2,44.8,56.8,84,62.3c29.7,4.2,58.1-1.2,85.5-12.9c3.1-1.3,4.2-1.6,5,2.4
		c2.4,12,5.3,24,8.1,35.9c0.7,3,0.2,4.4-2.7,5.7c-17.7,7.8-36.3,12-55.3,14.6c-24.2,3.3-48.4,3.4-72.5-1.4
		c-27.5-5.5-52.1-16.9-72.9-35.9c-20.7-18.9-34.3-42.2-42.1-68.9c-8.6-29.5-10.2-59.5-5.2-89.8c4.4-27,14.1-51.9,30.5-73.8
		c25.3-33.9,59.6-53.3,100.7-61.4C168.1,80.2,181.4,79.2,199.1,79.1z"/>
	<path id="r" class="uncolored undrawn" fill="#495E59" d="M740.8,274.5c0-43.3,0.3-86.6-0.1-130c-0.2-18.4-0.4-36.9-2.5-55.3c-0.3-2.6,0.7-3.6,3.3-3.6
		c15,0,30,0.1,45,0c3.1,0,3.4,1.5,3.5,4c0.3,15.5,0.7,31,1.2,46.4c0.1,3.5,0.4,7,0.7,10.4c0.1,1-0.6,2.5,1.2,2.8
		c2,0.4,1.9-1.5,2.4-2.5c2.8-6.4,5.4-12.8,9-18.9c15.9-27,38.5-44.5,70.2-48.9c7.6-1.1,15.3-0.8,22.9,0.5c2.5,0.4,3.7,1.5,3.6,4.3
		c-0.1,16.2-0.2,32.3,0,48.5c0,4-2,3.2-4.4,2.8c-20.8-3.6-40.5-0.5-58,11.7c-16.5,11.6-26.8,27.9-32.9,46.9
		c-4.7,14.9-6.7,30.2-6.7,45.7c-0.1,54.8-0.1,109.6,0.1,164.4c0,5-1.5,6-6.2,5.9c-15.7-0.3-31.3-0.3-47,0c-4.3,0.1-5.1-1.3-5.1-5.3
		c0.1-43.3,0.1-86.6,0.1-130C740.9,274.5,740.9,274.5,740.8,274.5z"/>
	<path id="tlow" class="uncolored undrawn" fill="#495E59" d="M1551.1,185c0,3.2,0,5.4,0,7.7c0,37-0.2,74,0.1,111c0.1,13.8,0.8,27.5,6.1,40.7
		c6.4,15.9,18.6,23.2,35.1,24c11,0.5,21.9-0.5,32.7-2.9c3.4-0.8,5-0.5,5.1,3.7c0.3,11.8,1.2,23.6,1.9,35.4c0.1,2.3,0.2,4.2-2.7,5
		c-29.8,8.2-59.7,11.2-89-1.1c-22.7-9.5-35.5-27.6-41.3-51.1c-3.8-15.5-5.1-31.2-5.1-47c0-29.7,0-59.3,0-89c0-2.6-0.4-4.7,3.6-4.8
		c22.2-0.3,39-10.6,51.3-28.7C1549.3,187.1,1549.9,186.5,1551.1,185z"/>
	<path id="i" class="uncolored undrawn" fill="#495E59" d="M1044.3,290.5c0,38-0.1,76,0.1,114c0,4-0.9,5.4-5.1,5.3c-16.3-0.3-32.7-0.2-49,0
		c-3.4,0-4.5-0.8-4.5-4.4c0.1-76.5,0.1-153,0-229.5c0-4.2,1.2-5.4,5.4-5.3c16,0.2,32,0.2,48,0c4.2-0.1,5.3,1.3,5.3,5.4
		C1044.2,214.1,1044.3,252.3,1044.3,290.5C1044.3,290.5,1044.3,290.5,1044.3,290.5z"/>
	<path id="tdot" class="uncolored undrawn" fill="#495E59" d="M1546,30.3c2,1.3,1,3.3,1.1,5c0.1,13.8,0.2,27.7,0,41.5c-0.1,4,0.8,5.5,5.2,5.4
		c13.8-0.3,27.7-0.1,41.5-0.1c1.1,0,2.3,0.3,3.4,0.4c0.3,6-4.1,9.7-7.5,13.4c-13.9,15.1-31.6,22.8-52.1,23.8
		c-7.2,0.4-7.5,0.6-8.2,7.5c-2.3,22.4-10.7,42-27.4,57.7c-1.7,1.6-3.8,2.5-5.8,3.7c-4.1,1.5-2.4-2-2.5-3.2
		c-0.1-13.8-0.1-27.5,0-41.3c0-6.5,0-6.5-6.4-6.5c-13.1,0-26.2,0.1-39.3,0c-1.6,0-3.7,1.2-4.8-1.2c3.4-10,11.1-16.6,19.1-22.5
		c12.7-9.2,27.1-14.2,43-13.7c4.2,0.2,5.6-1.7,5.9-5.5c0.7-8,1.7-15.9,4.4-23.5c5.4-15.2,13.2-28.7,26-38.8
		C1543,31.4,1544.2,30.1,1546,30.3z"/>
	<path id="idot" class="uncolored undrawn" fill="#495E59" d="M1014.2,124.7c-19.7,1.1-35.6-15.5-35.6-34.8c0-22.1,14.8-37.5,36.4-37.5c21.6,0,36,14.6,36.1,36.5
		C1051.1,110.7,1036.8,124.6,1014.2,124.7z"/>
	<path id="tdotup" class="uncolored undrawn" fill="#53ae90" d="M1546,30.3c-8.7,6.3-15.5,14.5-21,23.6c-6.8,11.2-11,23.4-12,36.4c-0.9,11.1-0.7,10.7-11.6,11.3
		c-23.6,1.1-42,11.9-55.6,31.1c-0.9,1.2-1.7,2.4-2.6,3.6c-1.7-22.9,17.3-47.9,40.5-52.1c9.5-1.7,9.2-2,10.4-9.7
		c4.1-25.2,24.7-43.1,50-44.9C1544.8,29.7,1545.4,30.1,1546,30.3z"/>
	<path id="tdotdown" class="uncolored undrawn" fill="#53ae90" d="M1496.2,188.6c17.8-14.9,27.8-34.2,31.6-56.9c0.5-3.1,0.4-6.3,0.9-9.4c0.5-2.9,1.4-3.9,4.4-3.8
		c13.9,0.4,27-3,39-10c10.8-6.3,19.7-14.4,25.2-26c1.5,10.5-1.8,19.9-7.2,28.6c-7.9,12.7-19.4,20.9-34.2,23.6
		c-6.3,1.1-8,4.1-9.2,10.3C1541.9,169.8,1521.4,188,1496.2,188.6z"/>
</g>
</svg>
